<svg width="32" height="32" viewBox="0 0 32 32" fill="none" xmlns="http://www.w3.org/2000/svg">
<rect width="32" height="32" rx="16" fill="#EAF0FA"/>
<path d="M12.0594 15.8711L15.8547 20H14.2524L10.8508 16.2977H10.8071V20H9.58208V12.1086H10.8071V15.6414H10.8508L14.0665 12.1086H15.5321L12.0594 15.8711ZM17.6373 20.0602C17.3894 20.0602 17.2144 20.0365 17.1123 19.9891V18.9336C17.2436 18.9664 17.3949 18.9828 17.5662 18.9828C17.8433 18.9828 18.0785 18.9245 18.2717 18.8078C18.4686 18.6911 18.6418 18.5034 18.7912 18.2445L16.1225 12.1086H17.424L19.3983 16.9594H19.4803L21.3944 12.1086H22.674L20.2569 17.7414C19.8886 18.6018 19.5131 19.2034 19.1303 19.5461C18.7511 19.8888 18.2535 20.0602 17.6373 20.0602Z" fill="#002CFB"/>
</svg>
